<svg xmlns="http://www.w3.org/2000/svg" viewBox="0 0 100 100">
  <!-- Hexagon shape -->
  <path 
    d="M50 5 L87.5 25 L87.5 75 L50 95 L12.5 75 L12.5 25 Z" 
    fill="white" 
    stroke="#0066cc" 
    stroke-width="5"
  />
  
  <!-- Neural network nodes and connections -->
  <!-- Nodes -->
  <circle cx="30" cy="25" r="5" fill="#0066cc" />
  <circle cx="50" cy="20" r="5" fill="#0066cc" />
  <circle cx="70" cy="30" r="5" fill="#0066cc" />
  <circle cx="25" cy="50" r="5" fill="#0066cc" />
  <circle cx="50" cy="45" r="5" fill="#0066cc" />
  <circle cx="75" cy="55" r="5" fill="#0066cc" />
  <circle cx="30" cy="75" r="5" fill="#0066cc" />
  <circle cx="50" cy="80" r="5" fill="#0066cc" />
  <circle cx="70" cy="70" r="5" fill="#0066cc" />
  
  <!-- Connections -->
  <path d="M30 25 L50 20 L70 30 L75 55 L70 70 L50 80 L30 75 L25 50 L30 25" fill="none" stroke="#0066cc" stroke-width="3" />
  <path d="M50 20 L50 45 L25 50 L50 80" fill="none" stroke="#0066cc" stroke-width="3" />
  <path d="M70 30 L50 45 L75 55" fill="none" stroke="#0066cc" stroke-width="3" />
</svg>